# xmcd
#
# Track frame offsets:
#	182
#	12830
#	27557
#	39792
#	53950
#	68395
#	82902
#	97602
#	111415
#	122820
#	137392
#	151650
#	165457
#	179932
#	194737
#	208947
#	222490
#	237547
#	250947
#	264452
#	279095
#	294090
#
# Disc length: 4096 seconds
#
# Revision: 0
# Processed by: cddbd v1.5.2PL0 Copyright (c) Steve Scherf et al.
# Submitted via: audiograbber 1.83.01
#
DISCID=320ffe16
DTITLE=billie holiday - cd livre
DYEAR=1900
DGENRE=
TTITLE0=Your Mother's Son in Law
TTITLE1=I Cried For You
TTITLE2=Billie's Blues
TTITLE3=I Can't Pretend
TTITLE4=This Year's Kisses
TTITLE5=I'll Get By
TTITLE6=Nice Work If You Can Get It
TTITLE7=My Man
TTITLE8=Havin' Myself A Time
TTITLE9=Any Old Time
TTITLE10=Long Gone Blues
TTITLE11=Somer Other Spring
TTITLE12=Strange Fruit
TTITLE13=Fine And Mellow
TTITLE14=The Man I Love
TTITLE15=Laughing At Life
TTITLE16=Georgia On My Mind
TTITLE17=God Bless The Child
TTITLE18=I Cover The Waterfront
TTITLE19=Gloomy Sunday
TTITLE20=Lover Man
TTITLE21=Don't Explain
EXTD=
EXTT0=
EXTT1=
EXTT2=
EXTT3=
EXTT4=
EXTT5=
EXTT6=
EXTT7=
EXTT8=
EXTT9=
EXTT10=
EXTT11=
EXTT12=
EXTT13=
EXTT14=
EXTT15=
EXTT16=
EXTT17=
EXTT18=
EXTT19=
EXTT20=
EXTT21=
PLAYORDER=
